<?xml version="1.0" standalone="no"?>
<!DOCTYPE svg PUBLIC "-//W3C//DTD SVG 20010904//EN"
 "http://www.w3.org/TR/2001/REC-SVG-20010904/DTD/svg10.dtd">
<svg version="1.0" xmlns="http://www.w3.org/2000/svg"
 width="24.000000pt" height="24.000000pt" viewBox="0 0 24.000000 24.000000"
 preserveAspectRatio="xMidYMid meet">

<g transform="translate(0.000000,24.000000) scale(0.100000,-0.100000)"
fill="#000000" stroke="none">
<path d="M24 187 c-3 -8 -4 -43 -2 -78 l3 -64 95 0 95 0 0 75 0 75 -93 3 c-72
2 -94 0 -98 -11z m176 -67 l0 -60 -80 0 -80 0 0 60 0 60 80 0 80 0 0 -60z"/>
<path d="M90 150 c0 -5 5 -10 10 -10 6 0 10 5 10 10 0 6 -4 10 -10 10 -5 0
-10 -4 -10 -10z"/>
<path d="M130 115 c-7 -9 -21 -13 -30 -10 -9 3 -23 -1 -30 -10 -11 -13 -5 -15
49 -15 l61 0 -16 25 c-19 29 -18 29 -34 10z"/>
</g>
</svg>
